# xmcd CD database file
#
# Track frame offsets:
#	150
#	11942
#	20220
#	29412
#	40837
#	53400
#	62927
#	75825
#	89197
#	99167
#	109542
#	120482
#	130945
#	144700
#	159042
#	171020
#	180985
#	189552
#	202965
#	214695
#	223882
#	234790
#	246235
#	258645
#	271307
#	285712
#	300780
#	312872
#	327087
#	338915
#
# Disc length: 4683 seconds
#
# Revision: 0
# Processed by: cddbd v1.5.2PL0 Copyright (c) Steve Scherf et al.
# Submitted via: CDex 1.51
#
DISCID=9d12491e
DTITLE=Slim Whitman - I'm A Lonely Wanderer CD4
DYEAR=1965
DGENRE=Country
TTITLE0=Love Song Of the Waterfall
TTITLE1=You Belong To My Heart
TTITLE2=In The Misty Moonlight
TTITLE3=Down In The Valley
TTITLE4=Virginia
TTITLE5=Melody Of Love
TTITLE6=Silver Threads Among The Gold
TTITLE7=When I'm Gone, You'll Soon Forget
TTITLE8=On The Sunny Side Of The Rockies
TTITLE9=My Heart Cries For You
TTITLE10=Ah! Sweet Mystery Of Life
TTITLE11=La Golondrina
TTITLE12=Another Tomorrow
TTITLE13=Reminiscing
TTITLE14=Mansion On The Hill
TTITLE15=Be Honest With Me
TTITLE16=Have You Ever Been Lonely
TTITLE17=I'm Thinking Tonight Of My Blue Eyes
TTITLE18=When I Grow Too Old To Dream
TTITLE19=Please Help Me I'm Falling
TTITLE20=Maybe I'll Cry
TTITLE21=Each Time
TTITLE22=More Than Yesterday
TTITLE23=Bells Of Memory
TTITLE24=With God's Hand In Mine
TTITLE25=He Bought My Soul At Calvary
TTITLE26=What A Friend We Have In Jesus
TTITLE27=He Reached Down His Hand
TTITLE28=A Miracle Of Love
TTITLE29=Carried On The Shoulders Of The Shepherd
EXTD=YEAR: 1965
EXTT0=
EXTT1=
EXTT2=
EXTT3=
EXTT4=
EXTT5=
EXTT6=
EXTT7=
EXTT8=
EXTT9=
EXTT10=
EXTT11=
EXTT12=
EXTT13=
EXTT14=
EXTT15=
EXTT16=
EXTT17=
EXTT18=
EXTT19=
EXTT20=
EXTT21=
EXTT22=
EXTT23=
EXTT24=
EXTT25=
EXTT26=
EXTT27=
EXTT28=
EXTT29=
PLAYORDER=
